HIERARCHY
ROOT Hips
{
	OFFSET 0.000000 0.000000 0.000000
	CHANNELS 6 Xposition Yposition Zposition Zrotation Yrotation Xrotation 
	JOINT LHipJoint
	{
		OFFSET 0.000000 0.000000 0.000000
		CHANNELS 3 Zrotation Yrotation Xrotation
		JOINT LeftUpLeg
		{
			OFFSET 1.363060 -1.794630 0.839290
			CHANNELS 3 Zrotation Yrotation Xrotation
			JOINT LeftLeg
			{
				OFFSET 2.448110 -6.726130 0.000000
				CHANNELS 3 Zrotation Yrotation Xrotation
				JOINT LeftFoot
				{
					OFFSET 2.562200 -7.039590 0.000000
					CHANNELS 3 Zrotation Yrotation Xrotation
					JOINT LeftToeBase
					{
						OFFSET 0.157640 -0.433110 2.322550
						CHANNELS 3 Zrotation Yrotation Xrotation
						End Site
						{
							OFFSET 0.000000 0.000000 0.000000
						}
					}
				}
			}
		}
	}
	JOINT RHipJoint
	{
		OFFSET 0.000000 0.000000 0.000000
		CHANNELS 3 Zrotation Yrotation Xrotation
		JOINT RightUpLeg
		{
			OFFSET -1.305520 -1.794630 0.839290
			CHANNELS 3 Zrotation Yrotation Xrotation
			JOINT RightLeg
			{
				OFFSET -2.542530 -6.985550 0.000000
				CHANNELS 3 Zrotation Yrotation Xrotation
				JOINT RightFoot
				{
					OFFSET -2.568260 -7.056230 0.000000
					CHANNELS 3 Zrotation Yrotation Xrotation
					JOINT RightToeBase
					{
						OFFSET -0.164730 -0.452590 2.363150
						CHANNELS 3 Zrotation Yrotation Xrotation
						End Site
						{
							OFFSET 0.000000 0.000000 0.000000
						}
					}
				}
			}
		}
	}
	JOINT LowerBack
	{
		OFFSET 0.000000 0.000000 0.000000
		CHANNELS 3 Zrotation Yrotation Xrotation
		JOINT Spine
		{
			OFFSET 0.028270 2.035590 -0.193380
			CHANNELS 3 Zrotation Yrotation Xrotation
			JOINT Spine1
			{
				OFFSET 0.056720 2.048850 -0.042750
				CHANNELS 3 Zrotation Yrotation Xrotation
				JOINT Neck
				{
					OFFSET 0.000000 0.000000 0.000000
					CHANNELS 3 Zrotation Yrotation Xrotation
					JOINT Neck1
					{
						OFFSET -0.054170 1.746240 0.172020
						CHANNELS 3 Zrotation Yrotation Xrotation
						JOINT Head
						{
							OFFSET 0.104070 1.761360 -0.123970
							CHANNELS 3 Zrotation Yrotation Xrotation
							End Site
							{
								OFFSET 0.000000 0.000000 0.000000
							}
						}
					}
				}
				JOINT LeftShoulder
				{
					OFFSET 0.000000 0.000000 0.000000
					CHANNELS 3 Zrotation Yrotation Xrotation
					JOINT LeftArm
					{
						OFFSET 3.362410 1.200890 -0.311210
						CHANNELS 3 Zrotation Yrotation Xrotation
						JOINT LeftForeArm
						{
							OFFSET 4.983000 -0.000000 -0.000000
							CHANNELS 3 Zrotation Yrotation Xrotation
							JOINT LeftHand
							{
								OFFSET 3.483560 -0.000000 -0.000000
								CHANNELS 3 Zrotation Yrotation Xrotation
								JOINT LeftFingerBase
								{
									OFFSET 0.000000 0.000000 0.000000
									CHANNELS 3 Zrotation Yrotation Xrotation
									JOINT LeftHandIndex1
									{
										OFFSET 0.715260 -0.000000 -0.000000
										CHANNELS 3 Zrotation Yrotation Xrotation
										End Site
										{
											OFFSET 0.000000 0.000000 0.000000
										}
									}
								}
								JOINT LThumb
								{
									OFFSET 0.000000 0.000000 0.000000
									CHANNELS 3 Zrotation Yrotation Xrotation
									End Site
									{
										OFFSET 0.000000 0.000000 0.000000
									}
								}
							}
						}
					}
				}
				JOINT RightShoulder
				{
					OFFSET 0.000000 0.000000 0.000000
					CHANNELS 3 Zrotation Yrotation Xrotation
					JOINT RightArm
					{
						OFFSET -3.136600 1.374050 -0.404650
						CHANNELS 3 Zrotation Yrotation Xrotation
						JOINT RightForeArm
						{
							OFFSET -5.241900 -0.000000 -0.000000
							CHANNELS 3 Zrotation Yrotation Xrotation
							JOINT RightHand
							{
								OFFSET -3.444170 -0.000000 -0.000000
								CHANNELS 3 Zrotation Yrotation Xrotation
								JOINT RightFingerBase
								{
									OFFSET 0.000000 0.000000 0.000000
									CHANNELS 3 Zrotation Yrotation Xrotation
									JOINT RightHandIndex1
									{
										OFFSET -0.622530 -0.000000 -0.000000
										CHANNELS 3 Zrotation Yrotation Xrotation
										End Site
										{
											OFFSET 0.000000 0.000000 0.000000
										}
									}
								}
								JOINT RThumb
								{
									OFFSET 0.000000 0.000000 0.000000
									CHANNELS 3 Zrotation Yrotation Xrotation
									End Site
									{
										OFFSET 0.000000 0.000000 0.000000
									}
								}
							}
						}
					}
				}
			}
		}
	}
}
MOTION
Frames: 12
Frame Time: 0.008333
5.721742 14.479069 35.845796 163.842700 -42.316669 -155.075814 -4.378367 -21.697888 -13.859175 11.785069 28.503494 14.646630 -0.838373 26.654640 19.755652 -1.530760 0.235110 -0.169817 -18.956079 -10.365941 -40.263171 -5.677419 9.139612 -13.650989 4.727786 -7.159522 -47.448325 -9.442085 -24.377622 73.329504 -15.483896 3.773838 -20.688401 -2.145582 -0.497422 4.286442 10.390953 4.144111 30.083005 -0.852393 -1.056321 -7.370358 -3.144131 -3.059139 7.986866 -5.915833 -0.666802 -16.664471 -4.552542 -0.502314 10.913751 26.825185 -14.617642 -9.940890 13.421043 0.888473 0.699354 -92.460904 -39.485237 42.765363 24.052378 -64.772907 28.016345 2.059719 -36.992940 4.630381 0.000002 -0.000001 0.000002 0.000000 -0.000000 -0.000000 0.000000 0.000000 -0.000000 -16.437531 -1.810732 2.547248 69.476368 13.486754 35.261111 -70.891101 79.992628 -4.896070 -43.717257 6.896694 -2.371731 -0.000005 0.000004 -0.000002 0.000000 0.000000 -0.000000 0.000000 0.000000 0.000000 
5.672222 14.531186 35.616517 164.010967 -40.609520 -155.050804 -3.473975 -21.137481 -13.717366 9.769813 28.035717 14.372757 -1.536554 24.901609 19.641314 2.256262 5.007261 5.315241 -20.066207 -13.501396 -42.548299 -5.482987 9.202515 -13.862177 5.607621 -7.867902 -47.095872 -8.683356 -23.619399 73.166172 -15.987805 5.122638 -21.833508 -3.587281 0.629844 6.246549 9.024792 3.671985 29.734168 -0.650992 -1.223451 -7.450091 -3.010191 -3.110128 8.455340 -5.800347 -0.568315 -17.392797 -4.604680 -0.375831 10.826044 26.440605 -14.160417 -9.506465 13.294643 2.161519 0.618257 -91.243394 -38.273338 41.123931 22.460166 -64.596895 28.984271 1.717605 -36.728407 4.713892 0.000002 -0.000001 0.000002 0.000000 -0.000000 0.000000 0.000000 0.000000 0.000000 -16.362562 -1.389084 2.005446 68.953511 15.477284 30.729103 -66.841750 82.662678 0.332793 -43.619538 8.031522 -2.631621 -0.000005 0.000004 -0.000002 -0.000000 0.000000 0.000000 -0.000000 -0.000000 0.000000 
5.652763 14.548649 35.395195 163.748115 -38.624539 -154.805487 -1.998060 -20.655090 -14.035602 6.871578 27.839968 14.112952 -1.097695 25.282657 19.239975 4.540581 7.271163 11.786704 -19.814367 -14.000667 -41.544094 -5.608086 9.454950 -14.295989 6.232467 -8.249410 -46.578045 -8.474502 -23.109211 73.349184 -16.629400 6.280705 -23.113941 -6.105452 4.082607 9.020841 7.152863 3.200708 29.683139 -0.404541 -1.282824 -7.477091 -2.251685 -2.925538 8.343683 -6.237728 -0.514571 -17.617892 -4.458429 -0.264226 10.578160 26.759218 -13.816985 -9.802910 13.085946 3.062115 0.687591 -90.473359 -36.930134 39.370750 20.352651 -64.366159 30.160254 0.686731 -36.410050 5.027229 0.000002 -0.000001 0.000002 0.000000 0.000000 0.000000 -0.000000 0.000000 0.000000 -17.194045 -0.735610 1.750257 68.473555 17.134842 27.120051 -59.877699 84.628436 6.837117 -40.807255 11.123463 -3.055178 -0.000005 0.000004 -0.000002 0.000000 0.000000 -0.000000 -0.000000 0.000000 0.000000 
5.637688 14.556787 35.190991 163.682472 -36.579701 -154.605737 -0.774954 -20.386040 -14.592580 4.483342 27.722639 13.829074 -0.210984 25.853346 19.160999 6.832261 8.827446 18.642747 -18.397250 -10.277544 -38.437381 -5.668331 9.735333 -14.522317 6.661484 -7.944859 -46.289896 -8.717365 -23.013981 73.565372 -17.420937 7.024284 -24.446630 -7.813821 6.110333 11.170974 6.031395 2.960575 30.027918 -0.305252 -1.207314 -7.531566 -1.799526 -2.591381 7.928799 -6.647389 -0.557707 -17.608981 -4.242651 -0.263640 10.183291 25.938352 -13.779538 -9.596594 13.057192 3.291700 0.584065 -90.130239 -35.527427 37.696990 17.783727 -63.784005 31.233880 0.524957 -35.838500 4.998893 0.000002 -0.000001 0.000002 0.000000 0.000000 0.000000 0.000000 -0.000000 -0.000000 -18.036402 -0.392350 1.955955 67.772688 18.893276 25.989304 -53.036909 84.542336 11.914954 -39.995226 12.284437 -3.222500 -0.000005 0.000004 -0.000002 0.000000 0.000000 -0.000000 -0.000000 -0.000000 -0.000000 
5.605661 14.559009 35.002853 164.092880 -34.983225 -155.146664 0.118067 -20.091676 -15.359981 2.925575 26.312563 14.921200 -0.486405 24.788041 19.040236 10.258768 11.463629 26.126565 -15.310267 -4.716797 -32.495111 -5.595590 9.717509 -14.276076 7.521492 -7.703967 -46.020708 -9.386409 -23.064495 73.761609 -17.454288 8.486271 -25.640296 -9.282706 4.065897 15.548619 5.962788 2.972402 30.729522 -0.277670 -1.187311 -7.509418 -2.258142 -2.532550 7.763600 -6.288708 -0.518747 -17.738764 -3.989866 -0.326177 9.848472 25.368553 -13.623801 -9.340278 13.962603 3.353438 0.342958 -90.020132 -34.213540 36.170449 15.338535 -63.132483 32.341392 0.943317 -35.558080 4.815938 0.000002 -0.000001 0.000002 -0.000000 0.000000 0.000000 -0.000000 -0.000000 -0.000000 -18.186688 -0.463649 2.163811 67.056002 20.847788 25.245677 -47.829415 84.040999 15.160544 -41.701559 11.068294 -3.156950 -0.000005 0.000004 -0.000002 0.000000 0.000000 0.000000 -0.000000 -0.000000 -0.000000 
5.574054 14.554850 34.806907 164.245990 -33.411744 -155.508508 0.994495 -19.665665 -15.987355 1.068518 25.034227 15.690593 -1.219521 21.742210 19.381015 13.030651 14.885410 34.225530 -10.681679 -2.226091 -21.914093 -5.622953 9.466949 -14.052239 8.512371 -7.499231 -45.807846 -9.972342 -22.817295 74.073015 -17.066192 9.958379 -26.812408 -11.097616 2.166113 20.417639 5.592359 2.897171 31.301973 -0.169393 -1.535442 -7.475327 -2.632696 -2.685072 7.593562 -5.887643 -0.519621 -17.866522 -3.729577 -0.433836 9.435861 24.519346 -13.489682 -9.308955 14.761107 4.024638 0.388515 -89.948889 -32.987057 34.717601 12.920335 -62.419104 33.296162 0.748367 -35.156435 4.821266 0.000002 -0.000001 0.000002 0.000000 0.000000 0.000000 0.000000 0.000000 0.000000 -18.418156 0.083331 2.161045 66.352543 22.759718 24.185086 -41.033330 83.655452 19.106655 -41.319200 10.925782 -3.079381 -0.000005 0.000004 -0.000002 0.000000 -0.000000 -0.000000 -0.000000 0.000000 -0.000000 
5.537177 14.580676 34.598348 164.854975 -32.101744 -155.817206 1.072872 -18.754329 -15.906168 0.567024 24.487002 14.566017 -0.625876 19.893735 21.323312 13.119193 16.959955 38.894036 -8.586450 -3.486388 -16.156618 -5.077077 9.386452 -13.808309 8.746497 -7.093819 -45.375820 -9.039484 -22.909540 73.901665 -17.332412 10.354646 -27.790222 -11.495531 -0.336895 22.352607 5.420485 2.584486 31.515897 -0.115258 -1.661724 -7.548890 -2.949561 -2.688364 7.196163 -5.565516 -0.472070 -17.731353 -3.593545 -0.478749 9.167668 23.977857 -13.479889 -8.939872 14.945362 4.391834 0.444489 -89.380375 -31.457201 33.042648 10.333680 -61.449681 34.043266 0.724303 -34.439542 4.728347 0.000002 -0.000001 0.000002 -0.000000 -0.000000 0.000000 -0.000000 -0.000000 -0.000000 -18.197781 0.674647 2.372463 65.717740 24.640124 23.241952 -33.062120 83.144103 25.347006 -41.571151 11.163761 -3.166354 -0.000005 0.000004 -0.000002 0.000000 0.000000 -0.000000 0.000000 0.000000 0.000000 
5.503769 14.623333 34.392793 165.645474 -31.158793 -156.062663 0.527253 -17.913991 -15.410624 1.011132 23.670940 11.965208 -0.884150 17.219925 25.696682 13.614719 20.024874 38.455712 -8.893477 -4.796002 -15.923225 -4.342844 9.531747 -13.786849 8.688300 -7.131285 -44.633110 -8.000486 -23.204682 73.443907 -17.458130 11.463760 -28.368212 -13.546485 0.306293 26.410607 5.309047 2.177761 31.427217 -0.091572 -1.664707 -7.689488 -3.288303 -2.599109 6.733394 -5.232405 -0.276453 -17.437590 -3.486768 -0.394427 9.108598 24.222414 -13.043831 -9.335303 14.877488 4.425110 0.410148 -88.393145 -29.654887 31.296470 7.889571 -60.206059 34.593349 1.486595 -33.682020 4.371559 0.000002 -0.000001 0.000002 -0.000000 0.000000 0.000000 0.000000 -0.000000 -0.000000 -17.540514 0.948466 3.028946 65.315417 26.841473 22.590300 -25.015467 82.514172 31.325568 -41.135375 11.715784 -3.229183 -0.000005 0.000004 -0.000002 -0.000000 -0.000000 -0.000000 0.000000 0.000000 0.000000 
5.475856 14.654925 34.180480 166.223206 -30.506218 -156.244293 -0.180425 -16.780132 -15.077857 1.596089 22.623770 9.553963 1.357459 19.209439 28.799367 12.161151 19.561963 38.039094 -8.737987 -4.220158 -15.963132 -3.615060 9.367838 -13.689863 9.007375 -7.563951 -44.153316 -6.835269 -22.848212 73.221860 -18.044572 12.192107 -29.025217 -14.635260 2.124360 28.220530 5.151801 1.734994 31.275317 -0.020105 -1.837130 -7.798304 -3.439454 -2.701884 5.995873 -4.977864 -0.141864 -16.824820 -3.347810 -0.351421 9.042320 24.108296 -12.764655 -9.502277 14.789963 4.404347 0.519512 -87.464678 -27.656856 29.776317 5.975271 -58.870498 34.875299 1.796376 -32.923240 4.170904 0.000002 -0.000001 0.000002 -0.000000 -0.000000 0.000000 -0.000000 0.000000 0.000000 -17.058528 1.599078 3.468975 65.058499 28.500411 22.173494 -19.423589 81.674781 34.350184 -39.461771 12.365631 -3.170260 -0.000005 0.000004 -0.000002 0.000000 0.000000 -0.000000 0.000000 0.000000 -0.000000 
5.437417 14.659670 33.972823 166.753806 -29.672812 -156.687488 -0.680268 -15.534511 -14.971792 1.881561 21.136112 7.964373 6.216520 25.418475 30.964778 9.831986 15.678856 38.059821 -6.945315 -2.778089 -12.835342 -3.093894 8.835679 -13.656076 9.761393 -7.795309 -43.480731 -8.886233 -23.021852 73.419056 -14.553416 17.387183 -28.788804 -15.738211 -14.407735 33.989283 4.894417 1.316765 31.137775 0.026590 -1.776072 -7.773640 -3.462558 -2.670031 6.044265 -4.879997 -0.117723 -16.834837 -3.135357 -0.356875 9.019598 24.060132 -12.955585 -8.395067 14.744680 4.517098 0.432549 -86.845151 -26.150728 28.516476 4.119699 -57.532980 35.215375 1.844182 -32.354950 4.079585 0.000002 -0.000001 0.000002 0.000000 0.000000 0.000000 0.000000 0.000000 0.000000 -16.895798 1.524314 3.833612 64.826943 30.670666 21.610120 -13.893409 80.857030 38.372394 -39.785335 12.329996 -3.203374 -0.000005 0.000004 -0.000002 0.000000 0.000000 -0.000000 0.000000 0.000000 -0.000000 
5.395856 14.656231 33.773574 167.239559 -28.581969 -157.141233 -0.623612 -14.918488 -14.782532 1.446521 20.013303 6.026768 4.617773 22.047298 35.233035 11.392238 18.546000 37.517909 -6.056440 -5.091631 -8.828293 -2.884437 8.543673 -13.785996 10.625280 -8.024320 -42.682565 -10.905108 -22.945782 73.772846 -11.935051 22.474410 -28.020436 -18.362906 -27.275765 41.416474 4.594006 1.036329 31.023654 0.061232 -1.697386 -7.717839 -3.217698 -2.701429 6.342780 -5.106837 -0.108311 -17.106397 -2.998953 -0.311480 8.921103 23.633542 -12.995126 -7.921047 14.442644 5.054586 0.472127 -86.461649 -25.046097 27.439853 2.443361 -56.350168 35.650019 2.008617 -32.217581 4.011265 0.000002 -0.000001 0.000002 -0.000000 -0.000000 -0.000000 0.000000 0.000000 0.000000 -17.202176 1.494751 4.113639 64.486565 32.896166 20.600898 -8.781638 80.200324 42.302994 -41.110181 11.789960 -3.248259 -0.000005 0.000004 -0.000002 -0.000000 -0.000000 0.000000 0.000000 0.000000 -0.000000 
5.366186 14.662718 33.572673 167.679497 -27.545388 -157.549729 -0.658745 -14.403351 -14.399843 0.838500 17.770597 3.568843 -0.626810 16.461125 40.736453 13.943649 24.342821 36.888620 -6.817218 -7.330433 -8.699215 -2.592472 8.690013 -13.846371 10.772925 -7.995379 -41.710586 -9.035207 -22.259601 73.955325 -13.101263 23.007816 -28.333841 -19.441432 -25.170615 42.674180 4.290601 0.747045 31.060934 0.102475 -1.605933 -7.731763 -3.358315 -2.504279 6.164913 -4.966067 -0.020526 -16.970526 -3.059160 -0.274628 8.742329 23.355414 -12.819876 -8.159962 14.548280 5.367430 0.534863 -86.097000 -23.677442 26.343846 1.061434 -55.377445 35.835682 1.953817 -31.983387 3.996764 0.000002 -0.000001 0.000002 0.000000 0.000000 0.000000 0.000000 -0.000000 0.000000 -17.044092 1.838299 4.400994 64.033097 34.402755 19.236352 -5.078036 79.713365 44.099787 -40.372166 11.851892 -3.166439 -0.000005 0.000004 -0.000002 0.000000 -0.000000 0.000000 -0.000000 -0.000000 -0.000000 
